<?xml version="1.0" encoding="UTF-8"?>
<svg id="Capa_2" data-name="Capa 2" xmlns="http://www.w3.org/2000/svg" viewBox="0 0 200 25.13">
  <defs>
    <style>
      .cls-1 {
        fill: #fff;
        stroke-width: 0px;
      }
    </style>
  </defs>
  <g id="Capa_1-2" data-name="Capa 1">
    <g>
      <polygon class="cls-1" points="11.48 .05 5.16 20.89 4.6 20.89 4.85 .05 0 .05 .53 25.13 8.13 25.13 16.58 .05 11.48 .05"/>
      <polygon class="cls-1" points="19.01 3.91 22.06 3.91 19.33 21.23 16.53 21.23 15.9 25.13 25.84 25.13 26.48 21.23 23.33 21.23 26.06 3.91 28.99 3.91 29.57 .05 19.59 .05 19.01 3.91"/>
      <path class="cls-1" d="m34.63.05l-3.91,25.08h9.69l5.35-5.43,2.16-13.7L44.7.05h-10.08Zm8.45,3.82l.51.96-2.47,15.41-.82.82h-4.96l2.68-17.19h5.06Z"/>
      <polygon class="cls-1" points="53.18 3.91 56.23 3.91 53.5 21.23 50.7 21.23 50.07 25.13 60.01 25.13 60.65 21.23 57.5 21.23 60.23 3.91 63.16 3.91 63.74 .05 53.76 .05 53.18 3.91"/>
      <polygon class="cls-1" points="76.95 12.36 72.52 0 68.83 .05 64.89 25.13 68.89 25.13 71.08 11.12 75.97 25.13 79.12 25.13 83.06 .05 78.93 .05 76.95 12.36"/>
      <polygon class="cls-1" points="87.35 3.91 90.4 3.91 87.67 21.23 84.87 21.23 84.24 25.13 94.18 25.13 94.82 21.23 91.67 21.23 94.4 3.91 97.33 3.91 97.91 .05 87.93 .05 87.35 3.91"/>
      <path class="cls-1" d="m107.72,25.13h3.99l1.69-10.87h9.32L125.04.05h-13.43l-3.89,25.08Zm12.58-21.31l-1.09,6.62h-5.22l1.03-6.62h5.28Z"/>
      <polygon class="cls-1" points="129.28 3.91 132.34 3.91 129.61 21.23 126.81 21.23 126.18 25.13 136.12 25.13 136.75 21.23 133.61 21.23 136.34 3.91 139.27 3.91 139.85 .05 129.87 .05 129.28 3.91"/>
      <polygon class="cls-1" points="144.35 3.95 154.11 3.95 141.55 21.55 141 25.13 154.89 25.13 155.47 21.31 146.87 21.31 158.53 3.91 159.16 .05 144.93 .05 144.35 3.95"/>
      <polygon class="cls-1" points="164.77 3.95 174.53 3.95 161.96 21.55 161.42 25.13 175.3 25.13 175.89 21.31 167.29 21.31 178.94 3.91 179.58 .05 165.35 .05 164.77 3.95"/>
      <path class="cls-1" d="m185.73.05l-3.9,25.08h3.99l1.69-10.87h6.11l-1.73,10.87h4.12L200,.05h-14.27Zm9.56,3.78l-1.06,6.62h-6.12l1.03-6.62h6.15Z"/>
    </g>
  </g>
</svg>